<svg xmlns="http://www.w3.org/2000/svg" width="1824.55" height="551.66" viewBox="0 0 1824.55 551.66">
  <title>HaraldReveryTextLogo_Outline</title>
  <path d="M773,286.4v230a8.25,8.25,0,1,1-16.5,0V409.75H601V516.4a8.25,8.25,0,1,1-16.5,0v-230a8.25,8.25,0,0,1,16.5,0V393.25h155.5V286.4a8.25,8.25,0,0,1,16.5,0Z" transform="translate(-71.2 -249.09)"/>
  <path d="M997.23,513.62l-85.74-230.1a8.24,8.24,0,0,0-7.72-5.37h0A8.24,8.24,0,0,0,896,283.5L809.77,513.6a8.27,8.27,0,0,0,4.83,10.63,8.46,8.46,0,0,0,2.9.52,8.26,8.26,0,0,0,7.73-5.35l41.11-109.66,74.55-.08,40.88,109.72a8.25,8.25,0,1,0,15.46-5.76ZM872.52,393.24,903.74,310l31,83.2Z" transform="translate(-71.2 -249.09)"/>
  <path d="M1213.51,524.75a8.23,8.23,0,0,1-6.62-3.31l-86-115a8.25,8.25,0,0,1,6.61-13.19c53.59,0,78-25.53,78-49.25s-24.41-49.25-78-49.25h-77.75V516.5a8.25,8.25,0,0,1-16.5,0v-230a8.25,8.25,0,0,1,8.25-8.25h86c28.44,0,52.52,6.78,69.64,19.62,15.8,11.85,24.86,28.66,24.86,46.13s-9.06,34.28-24.86,46.13c-13.82,10.37-32.19,16.79-53.73,18.87l76.7,102.56a8.25,8.25,0,0,1-6.6,13.19Z" transform="translate(-71.2 -249.09)"/>
  <path d="M1446.23,513.62l-85.74-230.1a8.24,8.24,0,0,0-7.72-5.37h0a8.25,8.25,0,0,0-7.72,5.35l-86.26,230.1a8.26,8.26,0,0,0,4.82,10.63,8.46,8.46,0,0,0,2.9.52,8.24,8.24,0,0,0,7.72-5.35l41.11-109.66,74.56-.08,40.88,109.72a8.25,8.25,0,0,0,15.46-5.76ZM1321.52,393.24,1352.74,310l31,83.2Z" transform="translate(-71.2 -249.09)"/>
  <path d="M1662.8,524.65H1491.2a8.25,8.25,0,0,1-8.25-8.25v-230a8.25,8.25,0,1,1,16.5,0V508.15H1662.8a8.25,8.25,0,0,1,0,16.5Z" transform="translate(-71.2 -249.09)"/>
  <path d="M1715.75,524.65a8.25,8.25,0,0,1-8.25-8.25v-230a8.25,8.25,0,0,1,8.25-8.25c54.86,0,101.12,13,133.78,37.6,29.8,22.45,46.22,52.87,46.22,85.65s-16.42,63.2-46.22,85.65C1816.87,511.65,1770.61,524.65,1715.75,524.65Zm8.25-229.9v213.3c47.6-1.21,87.44-13,115.6-34.18,25.57-19.26,39.65-45,39.65-72.47s-14.08-53.21-39.65-72.47C1811.44,307.72,1771.6,296,1724,294.75Z" transform="translate(-71.2 -249.09)"/>
  <path d="M764.51,800.75a8.23,8.23,0,0,1-6.62-3.31l-86-115a8.25,8.25,0,0,1,6.61-13.19c53.59,0,78-25.53,78-49.25s-24.41-49.25-78-49.25H600.75V792.5a8.25,8.25,0,0,1-16.5,0v-230a8.25,8.25,0,0,1,8.25-8.25h86c28.44,0,52.52,6.78,69.64,19.62C763.94,585.72,773,602.53,773,620s-9.06,34.28-24.86,46.13C734.32,676.5,716,682.92,694.41,685l76.7,102.56a8.25,8.25,0,0,1-6.6,13.19Z" transform="translate(-71.2 -249.09)"/>
  <g>
    <path d="M989.1,800.65h-172a8.25,8.25,0,0,1,0-16.5h172a8.25,8.25,0,0,1,0,16.5Z" transform="translate(-71.2 -249.09)"/>
    <path d="M989.1,570.65h-172a8.25,8.25,0,0,1,0-16.5h172a8.25,8.25,0,0,1,0,16.5Z" transform="translate(-71.2 -249.09)"/>
    <path d="M966.1,685.65h-126a8.25,8.25,0,0,1,0-16.5h126a8.25,8.25,0,0,1,0,16.5Z" transform="translate(-71.2 -249.09)"/>
  </g>
  <path d="M1127.45,800.65a8.26,8.26,0,0,1-7.73-5.36l-86-230a8.25,8.25,0,1,1,15.46-5.78l78.27,209.33,78.27-209.33a8.25,8.25,0,0,1,15.46,5.78l-86,230A8.26,8.26,0,0,1,1127.45,800.65Z" transform="translate(-71.2 -249.09)"/>
  <g>
    <path d="M1438.3,800.65h-172a8.25,8.25,0,0,1,0-16.5h172a8.25,8.25,0,0,1,0,16.5Z" transform="translate(-71.2 -249.09)"/>
    <path d="M1438.3,570.65h-172a8.25,8.25,0,0,1,0-16.5h172a8.25,8.25,0,0,1,0,16.5Z" transform="translate(-71.2 -249.09)"/>
    <path d="M1415.3,685.65h-126a8.25,8.25,0,0,1,0-16.5h126a8.25,8.25,0,0,1,0,16.5Z" transform="translate(-71.2 -249.09)"/>
  </g>
  <path d="M1663.18,800.75a8.22,8.22,0,0,1-6.61-3.31l-86-115a8.25,8.25,0,0,1,6.6-13.19c53.6,0,78-25.53,78-49.25s-24.4-49.25-78-49.25h-77.75V792.5a8.25,8.25,0,0,1-16.5,0v-230a8.25,8.25,0,0,1,8.25-8.25h86c28.45,0,52.53,6.78,69.64,19.62,15.8,11.85,24.86,28.66,24.86,46.13s-9.06,34.28-24.86,46.13c-13.82,10.37-32.18,16.79-53.72,18.87l76.69,102.56a8.24,8.24,0,0,1-6.6,13.19Z" transform="translate(-71.2 -249.09)"/>
  <path d="M1894.11,567.44l-84.36,112.8V792.5a8.25,8.25,0,0,1-16.5,0V680.25l-84.36-112.81a8.25,8.25,0,1,1,13.22-9.88l79.39,106.16,79.39-106.16a8.25,8.25,0,1,1,13.22,9.88Z" transform="translate(-71.2 -249.09)"/>
  <g>
    <path d="M268.44,630.61A326.57,326.57,0,0,1,71.2,350.06a229.35,229.35,0,0,1,118-101,285,285,0,0,0-37.82,105.52,289.32,289.32,0,0,0-3.1,42.31A285.82,285.82,0,0,0,199.73,561a288.53,288.53,0,0,0,68.71,69.57Z" transform="translate(-71.2 -249.09)"/>
    <path d="M306.5,634.93A271.4,271.4,0,0,1,173.27,326.71a212.88,212.88,0,0,1,128.87-66.26,264.35,264.35,0,0,0,4.36,374.48Z" transform="translate(-71.2 -249.09)"/>
    <path d="M217.66,623.52V800.74h-74.5V562.09A344.87,344.87,0,0,0,217.66,623.52Z" transform="translate(-71.2 -249.09)"/>
    <path d="M535.1,278.23V800.74H470.32V561H272.39a245.48,245.48,0,0,1-23.5-64.78H470.32v-218Z" transform="translate(-71.2 -249.09)"/>
  </g>
</svg>
