<svg xmlns="http://www.w3.org/2000/svg" viewBox="0 -800 600 1000" width="600" height="1000">
  <g transform="scale(1 -1)">
    <path d="M 125.234 216.497 C 144.641 216.497 160.373 200.765 160.373 181.358 C 160.373 161.952 144.641 146.219 125.234 146.219 C 105.828 146.219 90.096 161.952 90.096 181.358 C 90.096 200.765 105.828 216.497 125.234 216.497 Z M 294.294 216.538 C 305.555 216.538 314.683 207.409 314.683 196.149 C 314.683 184.889 305.555 175.761 294.294 175.761 C 283.034 175.761 273.906 184.889 273.906 196.149 C 273.906 207.409 283.034 216.538 294.294 216.538 Z M 202.369 320.784 C 228.602 320.784 249.869 299.517 249.869 273.284 C 249.869 247.05 228.602 225.784 202.369 225.784 C 176.135 225.784 154.869 247.05 154.869 273.284 C 154.869 299.517 176.135 320.784 202.369 320.784 Z M 110.444 381.518 C 127.619 381.518 141.543 367.594 141.543 350.418 C 141.543 333.242 127.619 319.319 110.444 319.319 C 93.268 319.319 79.344 333.242 79.344 350.418 C 79.344 367.594 93.268 381.518 110.444 381.518 Z M 279.503 395.947 C 296.479 395.947 310.241 382.185 310.241 365.209 C 310.241 348.233 296.479 334.471 279.503 334.471 C 262.527 334.471 248.766 348.233 248.766 365.209 C 248.766 382.185 262.527 395.947 279.503 395.947 Z M 187.578 489.843 C 213.812 489.843 235.078 468.577 235.078 442.343 C 235.078 416.11 213.812 394.843 187.578 394.843 C 161.345 394.843 140.078 416.11 140.078 442.343 C 140.078 468.577 161.345 489.843 187.578 489.843 Z" fill-rule="nonzero" fill="#000000" />
  </g>
</svg>
