<?xml version="1.0" encoding="utf-8"?>
<svg xmlns="http://www.w3.org/2000/svg" viewBox="0 0 500 500">
  <g id="Layer_1" transform="matrix(0.400978, 0, 0, 0.400978, 197.678864, 331.837799)" style="">
    <path d="M 62.588 5.777 C 30.688 -7.923 0.188 -24.423 -28.412 -43.323 C -61.812 -65.323 -92.912 -90.723 -121.01 -119.02 C -153.81 -151.92 -182.81 -188.72 -207.11 -228.72 C -255.31 -307.72 -285.21 -399.22 -291.01 -497.22 C -244.11 -579.62 -169.31 -644.22 -79.512 -678.22 C -113.71 -621.42 -137.21 -557.42 -147.31 -489.02 C -151.01 -464.22 -152.91 -438.92 -152.91 -413.22 C -152.91 -303.82 -118.81 -202.32 -60.612 -118.92 C -50.612 -104.52 -39.812 -90.723 -28.412 -77.523 C -1.512 -46.223 29.088 -18.223 62.588 5.777 Z" style="stroke-width: 1px; fill: rgb(255, 255, 255);"/>
    <path d="M 130.888 13.577 C -21.012 -68.523 -124.21 -229.32 -124.21 -414.12 C -124.21 -457.32 -118.61 -499.22 -108.01 -539.02 C -48.612 -602.82 32.188 -646.22 123.088 -657.82 C 39.288 -572.32 -12.312 -455.22 -12.312 -326.02 C -12.312 -272.12 -3.312 -220.32 13.188 -172.12 C 19.488 -153.82 26.788 -136.12 35.188 -118.92 C 59.288 -69.323 91.788 -24.523 130.888 13.577 Z" style="stroke-width: 1px; fill: rgb(255, 255, 255);"/>
    <path d="M -28.412 -6.923 L -28.412 310.877 L -162.01 310.877 L -162.01 -117.02 C -122.91 -74.323 -78.012 -37.223 -28.412 -6.923 Z" style="stroke-width: 1px; fill: rgb(255, 255, 255);"/>
    <path d="M 540.788 -626.02 L 540.788 310.777 L 424.588 310.777 L 424.588 -118.92 L 69.688 -118.92 C 50.488 -154.92 36.188 -194.02 27.588 -235.12 L 424.588 -235.12 L 424.588 -626.02 L 540.788 -626.02 Z" style="stroke-width: 1px; fill: rgb(255, 255, 255);"/>
  </g>
</svg>